<svg width="25" height="24" viewBox="0 0 25 24" fill="none" xmlns="http://www.w3.org/2000/svg">
<g clip-path="url(#clip0_6_116)">
<path d="M16.1185 23.0803C15.586 23.0561 15.0576 22.9756 14.542 22.8404C13.8594 22.6681 13.16 22.5713 12.4563 22.5515C11.7455 22.5692 11.0385 22.6594 10.3461 22.8208C9.0144 23.0901 7.86384 23.3104 6.80141 22.1647C5.05844 20.2847 2.76223 17.4156 2.76223 14.1794C2.75098 11.6566 3.58719 9.20319 5.13678 7.21241C6.37546 5.65059 8.00093 6.04227 9.72432 6.45843C10.6049 6.70878 11.5121 6.85341 12.4269 6.88928C13.3427 6.85332 14.2506 6.70366 15.1295 6.44374C16.8284 6.02269 18.4294 5.62122 19.6632 7.14876C21.2568 9.14659 22.1205 11.6287 22.1112 14.1843C22.1112 16.6812 20.7648 19.3202 17.9985 22.2578C17.7653 22.5251 17.4757 22.7375 17.1507 22.8797C16.8256 23.0219 16.4731 23.0904 16.1185 23.0803ZM12.4563 22.0619C13.2029 22.0814 13.945 22.1832 14.6693 22.3655C15.8933 22.6299 16.7843 22.8257 17.6362 21.9199C20.2898 19.0754 21.5971 16.5491 21.5971 14.1794C21.6125 11.739 20.7956 9.36614 19.2813 7.45231C18.2482 6.16957 16.9214 6.4976 15.247 6.91376C14.3296 7.1833 13.3824 7.33789 12.4269 7.37398C11.4743 7.33989 10.5292 7.19196 9.61171 6.93334C7.90791 6.52208 6.56641 6.19894 5.52356 7.51107C4.04029 9.41638 3.24024 11.7648 3.25183 14.1794C3.25183 17.2394 5.4746 20.0105 7.13924 21.8269C8.02051 22.7816 8.94585 22.5956 10.2286 22.3165C10.9604 22.1551 11.7069 22.0697 12.4563 22.0619Z" fill="#283483"/>
<path d="M12.8479 7.24664H11.7072L11.6729 7.04101C11.6729 7.00184 11.0119 3.04589 10.3804 1.74356C10.3538 1.69561 10.3398 1.6417 10.3398 1.58688C10.3398 1.53207 10.3538 1.47815 10.3804 1.43021C10.5077 1.21969 10.9532 1.09239 11.717 1.05322H11.9128L11.9667 1.23927C12.4024 2.74234 12.7892 6.81579 12.8088 6.98715L12.8479 7.24664ZM12.1233 6.75704H12.3094C12.1515 5.01188 11.9014 3.27628 11.5603 1.55751C11.3323 1.57313 11.1062 1.60917 10.8847 1.66522C11.4477 2.96266 11.9667 5.93941 12.1233 6.75704Z" fill="#283483"/>
<path d="M14.2825 5.90509C13.6879 5.91644 13.0942 5.85394 12.515 5.71905L12.2066 5.63581L12.3681 5.35674C13.1013 4.16705 14.1281 3.18582 15.3498 2.50728C15.9171 2.24586 16.5335 2.10805 17.1581 2.10299C17.7828 2.09792 18.4013 2.22572 18.9728 2.4779C19.3645 2.64926 19.8835 2.93323 19.9031 3.41793C19.9226 3.90264 19.3106 4.50484 17.8859 5.23924C16.7447 5.71122 15.517 5.93808 14.2825 5.90509ZM12.9752 5.31757C14.2727 5.54769 16.5493 5.37633 17.6656 4.8035C19.198 4.01524 19.4184 3.60398 19.4135 3.43262C19.4086 3.26126 19.1833 3.10459 18.777 2.94302C18.2741 2.71472 17.7283 2.5966 17.176 2.5966C16.6237 2.5966 16.0779 2.71472 15.575 2.94302C14.5345 3.52008 13.644 4.33343 12.9752 5.31757Z" fill="#283483"/>
</g>
<defs>
<clipPath id="clip0_6_116">
<rect width="23.5007" height="23.5007" fill="white" transform="translate(0.705902 0.470581)"/>
</clipPath>
</defs>
</svg>
