<svg width="24" height="24" viewBox="0 0 24 24" fill="none" xmlns="http://www.w3.org/2000/svg">
<path d="M5.17368 15.36L5.08633 15.3261C4.48729 15.0857 3.90663 14.8018 3.34898 14.4768C3.09521 14.3063 2.88402 14.0798 2.73171 13.8148C2.57941 13.5497 2.49007 13.2532 2.4706 12.9481L2.29104 12.8559C2.19561 12.8058 2.11122 12.737 2.04286 12.6536C1.97451 12.5702 1.92358 12.474 1.8931 12.3706C1.86673 12.2685 1.86131 12.1621 1.87716 12.0579C1.89301 11.9536 1.92979 11.8537 1.9853 11.764C2.09692 11.5602 2.22795 11.3272 2.33957 11.1331C2.43744 10.9658 2.593 10.84 2.77706 10.7792C2.96112 10.7185 3.16103 10.727 3.33927 10.8031L4.11089 11.1283C4.93262 10.9065 5.775 10.7699 6.62471 10.7206C7.73149 10.6595 8.82428 10.4439 9.87133 10.08C12.3803 8.99297 13.9672 6.92561 15.2629 5.0815L15.3357 4.97473H16.1899L15.1368 7.16341C13.9478 9.65297 12.6618 12.0163 10.2353 13.5887C9.22056 14.1473 8.13027 14.5559 6.99839 14.8019C6.37236 14.9766 5.77545 15.1368 5.27074 15.3309L5.17368 15.36ZM3.61589 14.0691C4.11917 14.3637 4.64302 14.6216 5.18339 14.8408C5.66868 14.6563 6.25589 14.5011 6.85765 14.3555C7.94152 14.1164 8.98684 13.7277 9.96354 13.2005C12.3124 11.6961 13.545 9.39576 14.7 6.97414L15.0882 6.12488C13.8556 7.79914 12.3221 9.52194 10.0606 10.4925C8.9661 10.8786 7.82233 11.1074 6.66354 11.1719C5.81976 11.2223 4.9845 11.3688 4.17398 11.6087L4.08177 11.6427L3.11118 11.2399C3.04301 11.2097 2.96603 11.2058 2.8952 11.2291C2.82436 11.2525 2.76471 11.3013 2.7278 11.3661C2.61618 11.5602 2.48515 11.7883 2.37354 11.9921C2.35209 12.0274 2.33841 12.0668 2.33339 12.1078C2.32837 12.1488 2.33213 12.1904 2.34442 12.2299C2.37064 12.309 2.42623 12.375 2.49971 12.4143L2.80545 12.5647C2.84832 12.5923 2.88336 12.6304 2.90716 12.6755C2.93097 12.7206 2.94274 12.771 2.94133 12.8219C2.94216 13.0693 3.00419 13.3127 3.12188 13.5303C3.23958 13.7479 3.40929 13.933 3.61589 14.0691Z" fill="#838383"/>
<path d="M20.3683 6.27529L19.8053 5.86764C19.5793 5.69204 19.3293 5.54985 19.0628 5.44544L17.869 4.96014H19.9412L20.0043 5.11058C20.0722 5.26817 20.129 5.43033 20.1741 5.59588L20.3683 6.27529Z" fill="#838383"/>
<path d="M9.16766 19.5141C7.47941 19.5076 5.80665 19.1918 4.23222 18.5824C3.95726 18.4535 3.71572 18.2631 3.52635 18.0257C3.33697 17.7884 3.20487 17.5105 3.1403 17.2139L2.95589 17.1459C2.85189 17.1167 2.75506 17.0663 2.67153 16.9978C2.588 16.9293 2.51959 16.8442 2.4706 16.748C2.4251 16.6532 2.39908 16.5502 2.39408 16.4452C2.38908 16.3402 2.4052 16.2352 2.44148 16.1365C2.52398 15.9133 2.62104 15.6512 2.70354 15.4377C2.76867 15.2583 2.89797 15.1094 3.06648 15.0197C3.23498 14.9301 3.43073 14.9061 3.61589 14.9524L4.44574 15.1562C4.65476 15.0475 4.87032 14.9519 5.09119 14.8699L5.26589 15.3261C5.03557 15.4059 4.81302 15.5066 4.60104 15.6269L4.51369 15.6755L3.49942 15.428C3.43003 15.4123 3.35735 15.4218 3.29427 15.4547C3.2312 15.4875 3.1818 15.5417 3.15486 15.6075C3.07236 15.8259 2.98016 16.0928 2.89766 16.3064C2.88203 16.3423 2.87396 16.3812 2.87396 16.4204C2.87396 16.4596 2.88203 16.4984 2.89766 16.5344C2.91451 16.5704 2.93879 16.6024 2.9689 16.6284C2.99901 16.6543 3.03427 16.6736 3.07236 16.6849L3.40721 16.7916C3.45448 16.8106 3.49594 16.8417 3.52744 16.8817C3.55895 16.9217 3.57941 16.9693 3.58677 17.0197C3.62383 17.2592 3.71819 17.4862 3.86183 17.6814C4.00547 17.8766 4.19414 18.0342 4.41177 18.1408C6.33583 18.8756 8.40276 19.1595 10.4537 18.9706C10.9412 18.4524 11.4615 17.9661 12.0115 17.5147C12.8871 16.8336 13.663 16.0332 14.3166 15.1368C14.473 14.8843 14.6156 14.6235 14.7437 14.3555L15.1805 14.5739C15.03 14.8747 14.8844 15.1465 14.7291 15.394C14.0436 16.3343 13.2265 17.1711 12.3027 17.8787C11.7471 18.3255 11.2249 18.812 10.74 19.3346L10.6769 19.4074H10.5847C10.1148 19.4703 9.64167 19.506 9.16766 19.5141Z" fill="#838383"/>
<path d="M5.26104 15.3309L5.09119 14.8747C5.6153 14.6757 6.22192 14.5107 6.85766 14.336C7.94152 14.097 8.98684 13.7083 9.96354 13.181C12.3124 11.6766 13.545 9.37632 14.7 6.9547L15.6706 4.95044H16.4131V7.46426C16.4131 9.89073 16.3209 12.2784 15.1999 14.5593L14.7631 14.3409C15.8405 12.1571 15.9278 9.84221 15.9278 7.46426V5.52309L15.1368 7.16338C13.9478 9.65294 12.6618 12.0163 10.2353 13.5887C9.22056 14.1472 8.13028 14.5559 6.99839 14.8019C6.35295 14.9766 5.76575 15.1368 5.26104 15.3309Z" fill="#838383"/>
<path d="M11.4631 22.4647C11.1597 22.4663 10.8601 22.3979 10.5874 22.2649C10.3147 22.1319 10.0763 21.9379 9.89074 21.698L9.62868 21.7319C9.53107 21.7468 9.43144 21.7411 9.33617 21.7152C9.2409 21.6893 9.15209 21.6437 9.07545 21.5815C8.99966 21.5228 8.93621 21.4497 8.88874 21.3664C8.84127 21.2832 8.81071 21.1913 8.79883 21.0962C8.77456 20.8196 8.74545 20.5138 8.72603 20.2663C8.7041 20.0822 8.75235 19.8965 8.86117 19.7463C8.96999 19.5961 9.1314 19.4924 9.31324 19.4559L10.1868 19.2763C10.2499 19.189 10.3178 19.1065 10.3954 19.0143L10.7643 19.3297C10.679 19.4268 10.5996 19.5289 10.5265 19.6355L10.4682 19.7131L9.4103 19.9412C9.34988 19.953 9.29602 19.9868 9.25923 20.0362C9.22244 20.0856 9.20536 20.1468 9.21133 20.2081C9.21133 20.4556 9.25986 20.7565 9.28412 21.0137C9.28496 21.05 9.29363 21.0857 9.30955 21.1184C9.32546 21.1511 9.34824 21.1799 9.37633 21.203C9.4308 21.2429 9.49861 21.2603 9.56559 21.2515L9.95868 21.1981C10.0098 21.191 10.0619 21.1998 10.1079 21.2232C10.1539 21.2466 10.1916 21.2836 10.2159 21.3291C10.3542 21.5299 10.5389 21.6943 10.7544 21.8084C10.9698 21.9224 11.2096 21.9828 11.4534 21.9843C11.5116 21.9843 18.3688 21.596 20.5915 16.2481C21.6154 13.7925 21.3971 9.77428 21.3971 9.75002C21.3971 8.04178 20.805 6.62958 19.8004 5.86767L20.0965 5.47943C21.2224 6.34325 21.8727 7.9059 21.8775 9.74517C21.8775 9.90046 22.1007 13.9041 21.0379 16.4616C18.6988 22.0668 11.5407 22.4647 11.4679 22.4647H11.4631Z" fill="#838383"/>
<path d="M19.8053 5.86767C19.5912 5.70176 19.3563 5.56471 19.1065 5.46003H16.8644V4.97473H19.2375C19.548 5.0925 19.8392 5.25608 20.1013 5.46003L19.8053 5.86767Z" fill="#838383"/>
<path d="M10.7643 19.3394L10.3954 19.0289C10.8953 18.4842 11.4355 17.9781 12.0115 17.5147C12.8871 16.8336 13.663 16.0332 14.3166 15.1368C14.473 14.8843 14.6156 14.6235 14.7437 14.3555L15.1804 14.5739C15.03 14.8747 14.8844 15.1465 14.7291 15.394C14.0436 16.3343 13.2264 17.1711 12.3027 17.8787C11.7553 18.3279 11.2412 18.8161 10.7643 19.3394Z" fill="#838383"/>
<path d="M15.1804 14.5593L14.7437 14.3409C15.821 12.1571 15.9084 9.84221 15.9084 7.46426V4.95044H16.879V5.43573H16.3937V7.46426C16.3937 9.90044 16.3015 12.2784 15.1804 14.5593Z" fill="#838383"/>
<path d="M20.2518 5.43573H19.7956V4.95044H20.2518C20.329 4.95044 20.4031 4.91976 20.4577 4.86515C20.5123 4.81055 20.543 4.73649 20.543 4.65926V2.77632C20.543 2.6991 20.5123 2.62503 20.4577 2.57043C20.4031 2.51582 20.329 2.48514 20.2518 2.48514H15.3358C15.2585 2.48514 15.1845 2.51582 15.1299 2.57043C15.0753 2.62503 15.0446 2.6991 15.0446 2.77632V4.65926C15.0446 4.73649 15.0753 4.81055 15.1299 4.86515C15.1845 4.91976 15.2585 4.95044 15.3358 4.95044H15.4619V5.43573H15.3358C15.1298 5.43573 14.9323 5.35393 14.7867 5.20831C14.6411 5.06269 14.5593 4.86519 14.5593 4.65926V2.77632C14.5573 2.67313 14.576 2.5706 14.6142 2.4747C14.6523 2.37881 14.7092 2.29149 14.7815 2.21784C14.8538 2.14419 14.94 2.08569 15.0352 2.04576C15.1304 2.00583 15.2325 1.98527 15.3358 1.98529H20.2518C20.4577 1.98529 20.6552 2.0671 20.8008 2.21271C20.9464 2.35833 21.0283 2.55583 21.0283 2.76176V4.65926C21.0283 4.86519 20.9464 5.06269 20.8008 5.20831C20.6552 5.35393 20.4577 5.43573 20.2518 5.43573Z" fill="#838383"/>
<path d="M19.7956 4.95044H19.1501V5.43573H19.7956V4.95044Z" fill="#838383"/>
<path d="M15.8065 4.95044H15.4619V5.43573H15.8065V4.95044Z" fill="#838383"/>
<path d="M16.151 4.95044H15.8065V5.43573H16.151V4.95044Z" fill="#838383"/>
<path d="M19.1501 4.95044H16.8644V5.43573H19.1501V4.95044Z" fill="#838383"/>
<path d="M16.8644 5.43573H15.9084V5.09117H16.151V4.95044H16.8644V5.43573Z" fill="#838383"/>
</svg>
