<svg width="26" height="26" viewBox="0 0 26 26" fill="none" xmlns="http://www.w3.org/2000/svg">
<path d="M11.2476 10.7718H11.0835C10.8208 10.7606 10.5631 10.6965 10.3258 10.5833C10.0885 10.4701 9.87651 10.3102 9.70248 10.1131C9.52846 9.91599 9.39601 9.6858 9.31307 9.43631C9.23013 9.18682 9.1984 8.92315 9.21979 8.6611C9.24119 8.39906 9.31525 8.14402 9.43756 7.91129C9.55987 7.67855 9.7279 7.47289 9.93158 7.30664C10.1353 7.14039 10.3704 7.01697 10.6229 6.94376C10.8755 6.87056 11.1402 6.84908 11.4012 6.88062C11.6565 6.90018 11.9053 6.97014 12.1334 7.08645C12.3615 7.20276 12.5643 7.36313 12.73 7.55827C13.0628 7.95403 13.226 8.46504 13.1844 8.98042C13.1428 9.49581 12.8996 9.97399 12.5076 10.3112C12.1552 10.6087 11.7088 10.7718 11.2476 10.7718ZM11.2476 7.39415C11.0158 7.38923 10.7862 7.44102 10.5789 7.54502C10.3716 7.64901 10.1928 7.80207 10.0581 7.99088C9.9234 8.1797 9.83686 8.39855 9.80599 8.62842C9.77512 8.85829 9.80087 9.09222 9.88098 9.30988C9.9611 9.52753 10.0932 9.72233 10.2657 9.87733C10.4382 10.0323 10.646 10.1429 10.871 10.1993C11.0959 10.2557 11.3313 10.2563 11.5565 10.2011C11.7818 10.1459 11.9902 10.0365 12.1635 9.88239C12.3779 9.70009 12.5335 9.45837 12.6106 9.18774C12.6877 8.91711 12.6829 8.62971 12.5968 8.3618C12.5107 8.09389 12.3472 7.8575 12.1268 7.68245C11.9065 7.50741 11.6393 7.40156 11.3588 7.37827L11.2476 7.39415Z" fill="#283483"/>
<path d="M17.2723 19.4118H17.1135C16.7284 19.3805 16.3613 19.2357 16.0585 18.9957C15.7557 18.7557 15.5308 18.4313 15.4124 18.0635C15.294 17.6958 15.2872 17.3011 15.3931 16.9295C15.4989 16.5579 15.7126 16.2261 16.0071 15.9759C16.2023 15.8092 16.4288 15.6831 16.6733 15.605C16.9178 15.5268 17.1755 15.4981 17.4312 15.5206C17.926 15.5713 18.3828 15.8088 18.7085 16.1847C19.0342 16.5606 19.2042 17.0466 19.184 17.5435C19.1637 18.0405 18.9547 18.511 18.5995 18.8592C18.2442 19.2073 17.7696 19.4068 17.2723 19.4171V19.4118ZM17.1559 18.8824C17.5252 18.9001 17.887 18.7735 18.1646 18.5292C18.4423 18.285 18.6141 17.9424 18.6436 17.5738C18.6732 17.2052 18.5582 16.8396 18.3231 16.5542C18.0879 16.2688 17.751 16.0861 17.3835 16.0447C17.1936 16.0248 17.0016 16.044 16.8194 16.1014C16.6373 16.1588 16.4689 16.253 16.3247 16.3783C16.1103 16.5606 15.9548 16.8023 15.8777 17.0729C15.8006 17.3435 15.8053 17.631 15.8914 17.8989C15.9775 18.1668 16.1411 18.4032 16.3614 18.5782C16.5817 18.7533 16.849 18.8591 17.1294 18.8824H17.1559Z" fill="#283483"/>
<path d="M11.1153 15.9283C10.8887 15.9303 10.6622 15.9161 10.4376 15.8859C10.2735 15.8859 10.1041 15.833 9.9347 15.7959C9.04062 15.5945 8.21414 15.1644 7.53614 14.5477C6.85814 13.9311 6.35185 13.1489 6.06679 12.2779C5.78173 11.4069 5.72768 10.4768 5.90992 9.57856C6.09216 8.68037 6.50445 7.84487 7.10646 7.15382C7.70846 6.46276 8.47955 5.93983 9.34428 5.63618C10.209 5.33252 11.1378 5.25856 12.0396 5.42152C12.9415 5.58448 13.7857 5.97878 14.4895 6.56584C15.1933 7.1529 15.7326 7.91261 16.0547 8.77064L15.5623 8.95593C15.2675 8.18763 14.7787 7.50879 14.1436 6.98553C13.5084 6.46227 12.7486 6.11244 11.9381 5.9701C11.1275 5.82777 10.294 5.89778 9.51852 6.17333C8.7431 6.44888 8.05226 6.92057 7.5133 7.54245C6.97434 8.16432 6.60563 8.91519 6.44309 9.72191C6.28055 10.5286 6.32972 11.3637 6.58582 12.1458C6.84191 12.9278 7.29619 13.6302 7.90441 14.1846C8.51263 14.7389 9.25406 15.1262 10.0565 15.3089C10.2047 15.3406 10.3582 15.3671 10.5065 15.3883C10.7538 15.422 11.0035 15.4344 11.2529 15.4253C11.848 14.5743 12.6801 13.917 13.6459 13.5353L13.8418 14.0277C12.9337 14.3858 12.1575 15.0141 11.6182 15.8277L11.5441 15.9389H11.4118L11.1153 15.9283Z" fill="#283483"/>
<path d="M6.46706 23.896C5.67288 23.8943 4.88923 23.714 4.17418 23.3685C3.45913 23.0229 2.83099 22.5208 2.33629 21.8995C1.84159 21.2782 1.49302 20.5536 1.31638 19.7793C1.13974 19.005 1.13957 18.2009 1.31589 17.4265C1.61555 16.1525 2.37655 15.0346 3.452 14.2886C4.52745 13.5426 5.8411 13.2215 7.13942 13.3871H7.25059L7.31942 13.4771C7.99079 14.3768 8.95823 15.0105 10.0512 15.2665C10.1994 15.2983 10.3529 15.3248 10.5012 15.346C10.7925 15.3833 11.0867 15.3939 11.38 15.3777L11.9094 15.3512L11.6182 15.7854C11.4635 16.0244 11.3289 16.2758 11.2159 16.5371C11.1065 16.7901 11.0197 17.0523 10.9565 17.3207C10.7075 18.3796 10.8309 19.492 11.3059 20.4707L11.3588 20.5765L11.3112 20.6877C10.9084 21.6394 10.2342 22.4513 9.37261 23.0219C8.51105 23.5925 7.50044 23.8965 6.46706 23.896ZM6.44059 13.8742C5.58266 13.8715 4.73994 14.1006 4.00139 14.5372C3.26283 14.9737 2.65586 15.6016 2.24453 16.3545C1.83321 17.1074 1.6328 17.9574 1.66446 18.8147C1.69612 19.6721 1.95869 20.505 2.42443 21.2255C2.89017 21.946 3.54181 22.5274 4.31056 22.9083C5.0793 23.2891 5.93662 23.4554 6.79202 23.3895C7.64741 23.3236 8.46914 23.0279 9.17045 22.5337C9.87176 22.0396 10.4266 21.3652 10.7765 20.5818C10.4737 19.9182 10.313 19.1986 10.3048 18.4692C10.2966 17.7398 10.441 17.0168 10.7288 16.3465C10.7924 16.2036 10.8559 16.066 10.93 15.9283C10.7659 15.9283 10.6018 15.9283 10.4377 15.886C10.2735 15.8436 10.1041 15.833 9.93471 15.796C8.75793 15.5239 7.71089 14.8545 6.97 13.9007C6.79421 13.8814 6.61743 13.8726 6.44059 13.8742Z" fill="#283483"/>
<path d="M15.5835 23.6842C15.1824 23.6852 14.7826 23.639 14.3923 23.5466C13.0268 23.2267 11.844 22.3781 11.1035 21.187C10.3631 19.9959 10.1255 18.5597 10.4429 17.1936C10.5125 16.8964 10.6082 16.6058 10.7288 16.3254C10.8524 16.0331 11.0031 15.7531 11.1788 15.4889C11.7769 14.585 12.6381 13.8865 13.6459 13.4877L13.8418 13.9801C12.9337 14.3382 12.1575 14.9665 11.6182 15.7801C11.4635 16.0191 11.3289 16.2705 11.2159 16.5318C11.1065 16.7849 11.0197 17.0471 10.9565 17.3154C10.7739 18.0696 10.7783 18.857 10.9693 19.6092C11.1604 20.3613 11.5322 21.0554 12.0525 21.6311C12.5729 22.2069 13.2259 22.6468 13.955 22.9126C14.684 23.1785 15.467 23.2623 16.2358 23.1567C17.0046 23.0511 17.7359 22.7593 18.3663 22.3068C18.9967 21.8542 19.507 21.2545 19.8528 20.5598C20.1986 19.8651 20.3696 19.0964 20.3507 18.3206C20.3319 17.5448 20.1239 16.7854 19.7447 16.1083L20.2053 15.8542C20.6391 16.6579 20.8577 17.5602 20.8397 18.4734C20.8217 19.3866 20.5677 20.2795 20.1025 21.0655C19.6373 21.8515 18.9767 22.5038 18.1848 22.959C17.393 23.4141 16.4968 23.6567 15.5835 23.663V23.6842Z" fill="#283483"/>
<path d="M20.4118 11.333L19.9247 11.1318C20.8829 8.77065 21.3488 6.17653 21.1688 5.64712C20.4911 6.13022 19.7838 6.57049 19.0512 6.96535C18.0031 7.49717 17.0251 8.15691 16.1394 8.92947C16.2875 9.3586 16.3783 9.8054 16.4094 10.2583L15.88 10.2954C15.8432 9.83514 15.7416 9.38244 15.5782 8.95065L15.5147 8.79182L15.6365 8.67006C16.5845 7.80866 17.644 7.07859 18.7865 6.49947C19.5056 6.12044 20.1989 5.69421 20.8618 5.22359C20.9431 5.14828 21.0474 5.10262 21.1579 5.09397C21.2684 5.08532 21.3786 5.1142 21.4706 5.17594C22.2065 5.74241 21.1847 9.42712 20.4118 11.333Z" fill="#283483"/>
<path d="M13.8788 13.9907L13.6459 13.5089L13.6988 13.4877L13.9106 13.9748L13.8788 13.9907Z" fill="#283483"/>
<path d="M20.1312 16.9236L20.02 16.7224C19.5644 15.866 18.9541 15.1013 18.22 14.4671C17.7381 14.142 17.1993 13.9103 16.6318 13.7842C16.1964 13.6838 15.7491 13.6445 15.3029 13.6677L14.7735 13.6995L15.0647 13.2601C15.3735 12.7929 15.5975 12.275 15.7265 11.7301C15.832 11.2614 15.8694 10.78 15.8376 10.3007L16.3671 10.2636C16.4091 10.7961 16.368 11.332 16.2453 11.8519C16.1432 12.3028 15.9793 12.7375 15.7582 13.1436C16.6556 13.1671 17.5307 13.4283 18.2941 13.9007C18.531 13.613 18.7519 13.3125 18.9559 13.0007C19.3271 12.4082 19.6426 11.7826 19.8982 11.1319V11.063L19.9565 11.0207C21.2616 10.1319 22.7982 9.64421 24.3771 9.61774H24.6471L24.6841 9.84009C24.6841 9.89303 25.42 14.9542 20.3376 16.8442L20.1312 16.9236ZM18.7494 14.2024C19.3878 14.8075 19.9336 15.5032 20.3694 16.2671C21.5927 15.8136 22.6313 14.9676 23.3228 13.8613C24.0144 12.755 24.3199 11.4508 24.1918 10.1524C22.8332 10.2293 21.5186 10.662 20.38 11.4071C20.116 12.062 19.7954 12.6927 19.4218 13.2919C19.216 13.6085 18.9915 13.9126 18.7494 14.2024Z" fill="#283483"/>
<path d="M18.22 14.4671C17.7381 14.142 17.1993 13.9103 16.6318 13.7842C15.7212 13.5685 14.7666 13.635 13.8947 13.9748L13.7041 13.4824C14.6768 13.1102 15.738 13.0347 16.7535 13.2654C17.375 13.4107 17.9651 13.6672 18.4953 14.0224L18.22 14.4671Z" fill="#283483"/>
<path d="M5.83705 19.1048H5.68352C5.32775 19.0753 4.9887 18.9411 4.70923 18.719C4.42976 18.4968 4.22242 18.1969 4.11341 17.8569C4.00441 17.517 3.99863 17.1524 4.09681 16.8091C4.195 16.4659 4.39274 16.1595 4.66503 15.9287C4.93732 15.6978 5.27195 15.5529 5.6266 15.5121C5.98126 15.4714 6.34002 15.5368 6.65755 15.6999C6.97507 15.8631 7.23709 16.1167 7.4105 16.4288C7.5839 16.7408 7.6609 17.0972 7.63175 17.453C7.59461 17.9039 7.38957 18.3243 7.05721 18.6312C6.72486 18.9381 6.28941 19.109 5.83705 19.1101V19.1048ZM5.83705 16.0236C5.50993 16.0274 5.19674 16.1566 4.9622 16.3847C4.72766 16.6127 4.58967 16.9222 4.57676 17.2491C4.56385 17.5759 4.67699 17.8953 4.89282 18.1412C5.10864 18.387 5.41065 18.5406 5.73646 18.5701C6.06539 18.5831 6.3866 18.4684 6.63296 18.2501C6.87932 18.0317 7.03176 17.7266 7.05842 17.3985C7.08508 17.0704 6.98389 16.7447 6.77601 16.4895C6.56813 16.2342 6.26964 16.0692 5.94293 16.0289L5.83705 16.0236Z" fill="#283483"/>
</svg>
