<svg width="110" height="47" viewBox="0 0 110 47" fill="none" xmlns="http://www.w3.org/2000/svg">
<path d="M22.1735 44.7473C31.3009 44.5264 38.5268 37.1868 38.313 28.3539C38.0993 19.521 30.5268 12.5396 21.3995 12.7604C12.2721 12.9813 5.04621 20.3209 5.25996 29.1538C5.47372 37.9867 13.0462 44.9681 22.1735 44.7473Z" stroke="#6A2EE8" stroke-width="0.844344" stroke-miterlimit="10"/>
<path d="M21.3464 12.8889L21.5245 7.19545L19.7287 7.2558L20.1816 12.9171L21.3464 12.8889Z" stroke="#6A2EE8" stroke-width="0.844344" stroke-miterlimit="10"/>
<path d="M29.6376 11.8691C32.7445 11.1224 34.722 8.37865 34.5345 7.47103C34.347 6.5634 31.0993 5.47055 27.9907 6.21638C24.8821 6.96222 21.1595 10.4357 22.0298 11.1816C22.9 11.9274 26.529 12.6158 29.6376 11.8691Z" stroke="#6A2EE8" stroke-width="0.844344" stroke-miterlimit="10"/>
<path d="M9.65186 32.2775C9.31306 32.866 13.3018 44.5827 26.0803 38.8174" stroke="#6A2EE8" stroke-width="0.844344" stroke-miterlimit="10" stroke-linecap="round"/>
<path d="M45.4132 35.1502L45.1017 22.2778L53.8404 22.0663L53.9036 24.6771L48.1382 24.8166L48.2053 27.5905L52.9554 27.4755L53.0138 29.8869L48.2637 30.0018L48.3865 35.0782L45.4132 35.1502ZM61.0303 27.7337C60.3296 27.7627 59.6978 27.8929 59.135 28.1242C58.5722 28.3555 58.1691 28.6918 57.9258 29.1331L58.064 34.8441L55.1632 34.9143L54.9329 25.3959L57.598 25.3314L57.6445 27.2532C57.9554 26.6047 58.3663 26.0929 58.8772 25.7177C59.3882 25.3425 59.9275 25.142 60.4953 25.1162C60.7371 25.1103 60.8943 25.1126 60.9671 25.1229L61.0303 27.7337ZM62.2488 31.3142L62.1014 25.2225L65.0022 25.1523L65.1343 30.6094C65.1632 31.806 65.6189 32.3936 66.5012 32.3723C66.888 32.3629 67.2602 32.2511 67.6178 32.0369C67.9751 31.8105 68.2868 31.4462 68.5528 30.9439L68.4107 25.0698L71.3115 24.9996L71.4637 31.2907C71.4707 31.5808 71.518 31.7853 71.6056 31.9041C71.7052 32.0226 71.87 32.0851 72.0999 32.0917L72.1582 34.503C71.8814 34.5581 71.6466 34.6 71.4538 34.6289C71.261 34.6577 71.086 34.6741 70.9289 34.6779C69.8894 34.703 69.2874 34.3124 69.1228 33.5061L69.0543 32.9273C68.6344 33.5663 68.1018 34.0448 67.4564 34.3628C66.8228 34.6684 66.1072 34.8308 65.3094 34.8501C64.3425 34.8735 63.5977 34.5832 63.0752 33.979C62.5526 33.3749 62.2772 32.4866 62.2488 31.3142ZM73.5324 23.8574L73.4688 21.2285L76.3696 21.1583L76.4333 23.7872L73.5324 23.8574ZM73.7891 34.4635L73.5588 24.9452L76.4596 24.875L76.6899 34.3933L73.7891 34.4635ZM84.8277 33.6884C84.4329 33.8673 83.9775 34.0355 83.4612 34.1932C82.9571 34.3505 82.4452 34.4354 81.9254 34.448C81.442 34.4597 80.9989 34.3918 80.5962 34.2444C80.1933 34.0848 79.8664 33.8206 79.6156 33.4518C79.3648 33.0829 79.2319 32.5903 79.217 31.9739L79.0968 27.0062L77.8821 27.0356L77.829 24.8418L79.0437 24.8125L78.9704 21.7847L81.8713 21.7145L81.9445 24.7423L83.8845 24.6953L83.9375 26.8891L81.9976 26.936L82.0937 30.9065C82.1013 31.2208 82.1854 31.4485 82.3461 31.5897C82.5064 31.7189 82.7075 31.7805 82.9492 31.7747C83.1667 31.7694 83.3895 31.7278 83.6174 31.6497C83.8453 31.5716 84.0428 31.4882 84.21 31.3995L84.8277 33.6884ZM85.3031 31.3368C85.2879 30.7083 85.4499 30.1541 85.789 29.6742C86.1281 29.1943 86.6026 28.814 87.2126 28.5332C87.8223 28.2403 88.526 28.0841 89.3238 28.0648C89.7105 28.0555 90.0921 28.0825 90.4686 28.146C90.8447 28.1974 91.1733 28.2801 91.4542 28.3942L91.4441 27.9773C91.4181 26.9015 90.7705 26.379 89.5014 26.4097C88.9696 26.4226 88.4702 26.5254 88.0032 26.7181C87.5483 26.9105 87.065 27.1822 86.5535 27.5332L85.6385 25.705C86.8756 24.8527 88.2436 24.4084 89.7423 24.3721C91.1686 24.3376 92.2828 24.6553 93.0852 25.3253C93.8993 25.9828 94.322 26.9582 94.3533 28.2515L94.4134 30.7354C94.4204 31.0254 94.4677 31.2299 94.5552 31.3487C94.6548 31.4672 94.8196 31.5298 95.0495 31.5363L95.1079 33.9476C94.8552 34.0021 94.6265 34.0439 94.4216 34.0731C94.2167 34.1022 94.0357 34.1187 93.8786 34.1225C93.3346 34.1356 92.915 34.037 92.6197 33.8264C92.3364 33.6156 92.154 33.3237 92.0724 32.9508L92.0079 32.5351C91.598 33.0892 91.1005 33.5185 90.5153 33.8229C89.9297 34.1152 89.3227 34.269 88.6942 34.2842C88.0657 34.2994 87.4944 34.1802 86.9803 33.9266C86.4783 33.6727 86.0769 33.3256 85.776 32.8854C85.4748 32.4332 85.3172 31.9169 85.3031 31.3368ZM91.0773 31.5599C91.3736 31.3108 91.5187 31.0594 91.5125 30.8056L91.4919 29.9534C91.2358 29.8629 90.956 29.7971 90.6527 29.7561C90.3611 29.7026 90.0945 29.6789 89.8528 29.6847C89.3089 29.6979 88.8646 29.8296 88.5199 30.0798C88.1873 30.3297 88.0256 30.642 88.0346 31.0167C88.0425 31.343 88.1763 31.624 88.436 31.8596C88.7075 32.0828 89.0607 32.1892 89.4959 32.1786C89.786 32.1716 90.0747 32.1102 90.3622 31.9944C90.6496 31.8786 90.888 31.7338 91.0773 31.5599ZM96.2369 20.6775L99.1377 20.6073L99.3759 30.452C99.3856 30.8509 99.465 31.1331 99.6141 31.2988C99.7633 31.4646 99.9708 31.5442 100.237 31.5378C100.418 31.5334 100.599 31.5048 100.779 31.4521C100.971 31.387 101.138 31.3164 101.282 31.2404L101.715 33.4068C101.357 33.5847 100.943 33.7278 100.474 33.8359C100.005 33.944 99.5647 34.003 99.1537 34.013C98.3318 34.0329 97.686 33.8308 97.2161 33.4068C96.7584 32.9825 96.5196 32.3594 96.4997 31.5375L96.2369 20.6775ZM102.31 20.5306L105.211 20.4604L105.449 30.305C105.458 30.7039 105.538 30.9862 105.687 31.1519C105.836 31.3176 106.044 31.3972 106.31 31.3908C106.491 31.3864 106.672 31.3578 106.852 31.3051C107.044 31.24 107.211 31.1694 107.355 31.0934L107.788 33.2598C107.429 33.4378 107.016 33.5808 106.547 33.6889C106.078 33.797 105.638 33.8561 105.227 33.866C104.405 33.8859 103.759 33.6838 103.289 33.2598C102.831 32.8355 102.592 32.2124 102.573 31.3905L102.31 20.5306Z" fill="#433FFF"/>
</svg>
