<svg width="22" height="22" viewBox="0 0 22 22" fill="none" xmlns="http://www.w3.org/2000/svg">
<g clip-path="url(#clip0_6_194)">
<path d="M18.103 5.02796C16.8853 5.02796 15.3456 4.70149 15.125 4.43237L15.0588 4.36179V4.23826C15.1427 3.93826 16.8721 2.7559 18.3235 2.64561C19.2463 2.61813 20.1551 2.87537 20.9265 3.38237C20.9692 3.4101 21.005 3.44733 21.031 3.49116C21.057 3.53498 21.0725 3.58422 21.0764 3.63504C21.0802 3.68585 21.0723 3.73687 21.0532 3.78411C21.0341 3.83135 21.0043 3.87353 20.9662 3.90737C20.2841 4.51813 19.431 4.90467 18.5221 5.01473C18.3897 5.02355 18.2485 5.02796 18.103 5.02796ZM15.5 4.26473C16.4662 4.57745 17.4813 4.71199 18.4956 4.66179C19.3288 4.55732 20.1104 4.20188 20.7368 3.64267C20.0252 3.20893 19.2053 2.98561 18.3721 2.99855C17.3202 3.16133 16.3297 3.59801 15.5 4.26473Z" fill="#283483"/>
<path d="M6.48237 21.2588C5.06866 21.3132 3.66269 21.0257 2.38384 20.4206C1.33384 19.8427 0.74708 19.128 0.619139 18.2941C0.451492 16.9706 1.53679 15.7221 2.19855 15.0912C3.27061 14.0633 3.55737 13.6618 4.40443 9.35591C5.15002 5.59267 7.18826 3.36914 10.1397 3.09561H10.2368C12.3767 2.99975 14.4839 3.64657 16.2015 4.9265C17.0596 5.53204 17.7862 6.3051 18.3374 7.19905C18.8886 8.09301 19.2531 9.08934 19.4088 10.128C19.678 12.2897 18.9015 14.5706 17.1588 16.7456C14.6706 19.8383 10.1221 21.2588 6.48237 21.2588ZM4.64267 9.40002L4.85884 9.44414C4.02943 13.7059 3.72943 14.253 2.52061 15.4088C1.9162 15.9824 0.941198 17.1162 1.07796 18.2368C1.1662 18.9206 1.67796 19.525 2.59561 20.0324C5.62649 21.7 13.3824 20.7338 16.85 16.4368C18.5088 14.3809 19.2544 12.2147 19.003 10.1721C18.8528 9.19292 18.5065 8.25414 17.985 7.41193C17.4634 6.56973 16.7773 5.84142 15.9677 5.27061C14.3445 4.05002 12.35 3.42673 10.3206 3.50591L10.2059 3.55885C7.41767 3.81473 5.56914 5.85738 4.85443 9.4662L4.64267 9.40002Z" fill="#283483"/>
<path d="M15.2 4.70592L14.2647 4.30445L15.3677 1.25592L16.6383 1.79416L15.2 4.70592ZM14.7059 4.11474L15.0324 4.25151L16.1574 1.97945L15.575 1.72798L14.7059 4.11474Z" fill="#283483"/>
</g>
<defs>
<clipPath id="clip0_6_194">
<rect width="21.1765" height="21.1765" fill="white" transform="translate(0.0588379 0.470581)"/>
</clipPath>
</defs>
</svg>
