<svg width="22" height="22" viewBox="0 0 22 22" fill="none" xmlns="http://www.w3.org/2000/svg">
<path d="M10.6588 20.8235C8.70603 20.8235 6.79708 20.2445 5.17339 19.1596C3.54969 18.0746 2.28418 16.5326 1.53688 14.7284C0.789572 12.9243 0.594043 10.9391 0.975015 9.02378C1.35599 7.1085 2.29635 5.34921 3.67719 3.96837C5.05803 2.58753 6.81732 1.64717 8.7326 1.2662C10.6479 0.885226 12.6331 1.08076 14.4373 1.82806C16.2414 2.57536 17.7834 3.84088 18.8684 5.46457C19.9533 7.08827 20.5324 8.99721 20.5324 10.95C20.5289 13.5676 19.4875 16.0769 17.6366 17.9278C15.7857 19.7787 13.2764 20.82 10.6588 20.8235ZM10.6588 1.51766C8.79328 1.51766 6.96964 2.07086 5.41849 3.1073C3.86735 4.14374 2.65838 5.61687 1.94447 7.34041C1.23056 9.06394 1.04377 10.9605 1.40771 12.7902C1.77166 14.6199 2.67001 16.3006 3.98915 17.6197C5.30829 18.9388 6.98897 19.8372 8.81867 20.2011C10.6484 20.5651 12.5449 20.3783 14.2684 19.6644C15.992 18.9505 17.4651 17.7415 18.5015 16.1903C19.538 14.6392 20.0912 12.8156 20.0912 10.95C20.0877 8.44947 19.0928 6.05235 17.3246 4.2842C15.5565 2.51605 13.1594 1.52116 10.6588 1.51766Z" fill="#283483"/>
<path d="M6.24706 8.90737C6.16699 8.90783 6.08809 8.8881 6.01765 8.85001L5.63383 8.64707L5.19265 8.85001C5.11243 8.89265 5.02186 8.91192 4.93123 8.90562C4.8406 8.89933 4.75356 8.86772 4.68001 8.8144C4.60647 8.76107 4.54936 8.68818 4.5152 8.604C4.48103 8.51982 4.47118 8.42775 4.48677 8.33825L4.56177 7.89707L4.2353 7.55295C4.17364 7.48846 4.13078 7.40834 4.11134 7.32125C4.0919 7.23417 4.09663 7.14343 4.125 7.05884C4.15202 6.97195 4.20336 6.89461 4.27294 6.83598C4.34252 6.77734 4.42744 6.73986 4.51765 6.72795L4.95883 6.66178L5.18383 6.24707C5.22383 6.16404 5.28645 6.09398 5.36449 6.04495C5.44254 5.99592 5.53283 5.96991 5.625 5.96991C5.71717 5.96991 5.80746 5.99592 5.88551 6.04495C5.96355 6.09398 6.02618 6.16404 6.06618 6.24707L6.2603 6.63972L6.70147 6.72795C6.79168 6.73986 6.8766 6.77734 6.94618 6.83598C7.01576 6.89461 7.0671 6.97195 7.09412 7.05884C7.12171 7.14522 7.12477 7.23757 7.10296 7.32559C7.08114 7.41362 7.03532 7.49385 6.97059 7.55736L6.66177 7.85736L6.71912 8.32942C6.73864 8.42088 6.73156 8.51601 6.69872 8.60358C6.66589 8.69114 6.60867 8.76747 6.53383 8.82354C6.44918 8.8804 6.34901 8.90968 6.24706 8.90737ZM5.61177 8.20148C5.69054 8.20017 5.76823 8.21997 5.83677 8.25884L6.225 8.46178C6.23267 8.46505 6.24093 8.46674 6.24927 8.46674C6.25761 8.46674 6.26586 8.46505 6.27353 8.46178C6.27644 8.45479 6.27794 8.44729 6.27794 8.43972C6.27794 8.43215 6.27644 8.42465 6.27353 8.41766L6.19853 7.97648C6.18343 7.89701 6.18843 7.81501 6.21308 7.73796C6.23774 7.66091 6.28127 7.59125 6.33971 7.53531L6.64853 7.23089C6.6539 7.22394 6.65681 7.21541 6.65681 7.20663C6.65681 7.19785 6.6539 7.18932 6.64853 7.18237C6.64615 7.17442 6.64157 7.16731 6.63533 7.16185C6.62908 7.15638 6.62143 7.15279 6.61324 7.15148L6.17206 7.08972C6.09389 7.07934 6.01951 7.04973 5.9556 7.00353C5.89169 6.95733 5.84025 6.89599 5.80588 6.82501L5.61177 6.43237C5.60815 6.42491 5.60251 6.41862 5.59549 6.41421C5.58847 6.40981 5.58035 6.40748 5.57206 6.40748C5.56377 6.40748 5.55565 6.40981 5.54863 6.41421C5.54161 6.41862 5.53597 6.42491 5.53235 6.43237L5.33824 6.8206C5.30325 6.89111 5.25163 6.95205 5.18783 6.99817C5.12404 7.04428 5.04999 7.07419 4.97206 7.08531L4.53088 7.14707C4.52208 7.1481 4.51372 7.15152 4.50672 7.15697C4.49972 7.16241 4.49434 7.16967 4.49118 7.17795C4.48692 7.18533 4.48468 7.1937 4.48468 7.20222C4.48468 7.21074 4.48692 7.21911 4.49118 7.22648L4.80441 7.53089C4.86241 7.58704 4.90533 7.65689 4.92923 7.73399C4.95313 7.81109 4.95724 7.89296 4.94118 7.97207L4.87059 8.41325C4.86623 8.41978 4.8639 8.42745 4.8639 8.43531C4.8639 8.44316 4.86623 8.45084 4.87059 8.45737C4.87826 8.46064 4.88651 8.46233 4.89485 8.46233C4.9032 8.46233 4.91145 8.46064 4.91912 8.45737L5.30294 8.25442C5.39594 8.19958 5.50582 8.18075 5.61177 8.20148Z" fill="#283483"/>
</svg>
